<svg xmlns="http://www.w3.org/2000/svg" xmlns:xlink="http://www.w3.org/1999/xlink" width="227" height="273" viewBox="0 0 227 273"><defs><style>.a{fill:none;}.b{opacity:0.5;clip-path:url(#a);}.c{fill:#eaeaea;}</style><clipPath id="a"><rect class="a" width="227" height="273"/></clipPath></defs><g class="b"><g transform="translate(-1024 -1747)"><circle class="c" cx="5.5" cy="5.5" r="5.5" transform="translate(1024 1747)"/></g><g transform="translate(-1003 -1747)"><circle class="c" cx="5.5" cy="5.5" r="5.5" transform="translate(1024 1747)"/></g><g transform="translate(-982 -1747)"><circle class="c" cx="5.5" cy="5.5" r="5.5" transform="translate(1024 1747)"/></g><g transform="translate(-961 -1747)"><circle class="c" cx="5.5" cy="5.5" r="5.5" transform="translate(1024 1747)"/></g><g transform="translate(-940 -1747)"><circle class="c" cx="5.5" cy="5.5" r="5.5" transform="translate(1024 1747)"/></g><g transform="translate(-919 -1747)"><circle class="c" cx="5.5" cy="5.5" r="5.5" transform="translate(1024 1747)"/></g><g transform="translate(-898 -1747)"><circle class="c" cx="5.5" cy="5.5" r="5.5" transform="translate(1024 1747)"/></g><g transform="translate(-877 -1747)"><circle class="c" cx="5.5" cy="5.5" r="5.5" transform="translate(1024 1747)"/></g><g transform="translate(-856 -1747)"><circle class="c" cx="5.5" cy="5.5" r="5.5" transform="translate(1024 1747)"/></g><g transform="translate(-835 -1747)"><circle class="c" cx="5.5" cy="5.5" r="5.5" transform="translate(1024 1747)"/></g><g transform="translate(-814 -1747)"><circle class="c" cx="5.5" cy="5.5" r="5.5" transform="translate(1024 1747)"/></g><g transform="translate(-1024 -1726)"><circle class="c" cx="5.5" cy="5.5" r="5.5" transform="translate(1024 1747)"/></g><g transform="translate(-1003 -1726)"><circle class="c" cx="5.5" cy="5.5" r="5.5" transform="translate(1024 1747)"/></g><g transform="translate(-982 -1726)"><circle class="c" cx="5.5" cy="5.5" r="5.5" transform="translate(1024 1747)"/></g><g transform="translate(-961 -1726)"><circle class="c" cx="5.5" cy="5.5" r="5.5" transform="translate(1024 1747)"/></g><g transform="translate(-940 -1726)"><circle class="c" cx="5.5" cy="5.5" r="5.5" transform="translate(1024 1747)"/></g><g transform="translate(-919 -1726)"><circle class="c" cx="5.5" cy="5.5" r="5.5" transform="translate(1024 1747)"/></g><g transform="translate(-898 -1726)"><circle class="c" cx="5.5" cy="5.5" r="5.5" transform="translate(1024 1747)"/></g><g transform="translate(-877 -1726)"><circle class="c" cx="5.5" cy="5.5" r="5.5" transform="translate(1024 1747)"/></g><g transform="translate(-856 -1726)"><circle class="c" cx="5.5" cy="5.5" r="5.5" transform="translate(1024 1747)"/></g><g transform="translate(-835 -1726)"><circle class="c" cx="5.5" cy="5.5" r="5.5" transform="translate(1024 1747)"/></g><g transform="translate(-814 -1726)"><circle class="c" cx="5.5" cy="5.5" r="5.5" transform="translate(1024 1747)"/></g><g transform="translate(-1024 -1705)"><circle class="c" cx="5.5" cy="5.5" r="5.5" transform="translate(1024 1747)"/></g><g transform="translate(-1003 -1705)"><circle class="c" cx="5.5" cy="5.5" r="5.5" transform="translate(1024 1747)"/></g><g transform="translate(-982 -1705)"><circle class="c" cx="5.5" cy="5.5" r="5.5" transform="translate(1024 1747)"/></g><g transform="translate(-961 -1705)"><circle class="c" cx="5.5" cy="5.5" r="5.5" transform="translate(1024 1747)"/></g><g transform="translate(-940 -1705)"><circle class="c" cx="5.5" cy="5.5" r="5.5" transform="translate(1024 1747)"/></g><g transform="translate(-919 -1705)"><circle class="c" cx="5.5" cy="5.5" r="5.5" transform="translate(1024 1747)"/></g><g transform="translate(-898 -1705)"><circle class="c" cx="5.5" cy="5.5" r="5.5" transform="translate(1024 1747)"/></g><g transform="translate(-877 -1705)"><circle class="c" cx="5.5" cy="5.5" r="5.5" transform="translate(1024 1747)"/></g><g transform="translate(-856 -1705)"><circle class="c" cx="5.5" cy="5.5" r="5.5" transform="translate(1024 1747)"/></g><g transform="translate(-835 -1705)"><circle class="c" cx="5.5" cy="5.5" r="5.5" transform="translate(1024 1747)"/></g><g transform="translate(-814 -1705)"><circle class="c" cx="5.5" cy="5.5" r="5.5" transform="translate(1024 1747)"/></g><g transform="translate(-1024 -1684)"><circle class="c" cx="5.5" cy="5.5" r="5.5" transform="translate(1024 1747)"/></g><g transform="translate(-1003 -1684)"><circle class="c" cx="5.5" cy="5.5" r="5.5" transform="translate(1024 1747)"/></g><g transform="translate(-982 -1684)"><circle class="c" cx="5.5" cy="5.5" r="5.5" transform="translate(1024 1747)"/></g><g transform="translate(-961 -1684)"><circle class="c" cx="5.5" cy="5.5" r="5.5" transform="translate(1024 1747)"/></g><g transform="translate(-940 -1684)"><circle class="c" cx="5.5" cy="5.5" r="5.5" transform="translate(1024 1747)"/></g><g transform="translate(-919 -1684)"><circle class="c" cx="5.5" cy="5.5" r="5.5" transform="translate(1024 1747)"/></g><g transform="translate(-898 -1684)"><circle class="c" cx="5.5" cy="5.5" r="5.5" transform="translate(1024 1747)"/></g><g transform="translate(-877 -1684)"><circle class="c" cx="5.5" cy="5.5" r="5.5" transform="translate(1024 1747)"/></g><g transform="translate(-856 -1684)"><circle class="c" cx="5.5" cy="5.5" r="5.5" transform="translate(1024 1747)"/></g><g transform="translate(-835 -1684)"><circle class="c" cx="5.5" cy="5.5" r="5.5" transform="translate(1024 1747)"/></g><g transform="translate(-814 -1684)"><circle class="c" cx="5.5" cy="5.5" r="5.5" transform="translate(1024 1747)"/></g><g transform="translate(-1024 -1663)"><circle class="c" cx="5.5" cy="5.5" r="5.5" transform="translate(1024 1747)"/></g><g transform="translate(-1003 -1663)"><circle class="c" cx="5.5" cy="5.5" r="5.5" transform="translate(1024 1747)"/></g><g transform="translate(-982 -1663)"><circle class="c" cx="5.5" cy="5.5" r="5.5" transform="translate(1024 1747)"/></g><g transform="translate(-961 -1663)"><circle class="c" cx="5.5" cy="5.5" r="5.5" transform="translate(1024 1747)"/></g><g transform="translate(-940 -1663)"><circle class="c" cx="5.5" cy="5.5" r="5.5" transform="translate(1024 1747)"/></g><g transform="translate(-919 -1663)"><circle class="c" cx="5.5" cy="5.5" r="5.5" transform="translate(1024 1747)"/></g><g transform="translate(-898 -1663)"><circle class="c" cx="5.5" cy="5.5" r="5.5" transform="translate(1024 1747)"/></g><g transform="translate(-877 -1663)"><circle class="c" cx="5.5" cy="5.5" r="5.5" transform="translate(1024 1747)"/></g><g transform="translate(-856 -1663)"><circle class="c" cx="5.5" cy="5.5" r="5.5" transform="translate(1024 1747)"/></g><g transform="translate(-835 -1663)"><circle class="c" cx="5.5" cy="5.5" r="5.5" transform="translate(1024 1747)"/></g><g transform="translate(-814 -1663)"><circle class="c" cx="5.5" cy="5.5" r="5.5" transform="translate(1024 1747)"/></g><g transform="translate(-1024 -1642)"><circle class="c" cx="5.5" cy="5.5" r="5.5" transform="translate(1024 1747)"/></g><g transform="translate(-1003 -1642)"><circle class="c" cx="5.5" cy="5.5" r="5.5" transform="translate(1024 1747)"/></g><g transform="translate(-982 -1642)"><circle class="c" cx="5.5" cy="5.5" r="5.5" transform="translate(1024 1747)"/></g><g transform="translate(-961 -1642)"><circle class="c" cx="5.5" cy="5.5" r="5.5" transform="translate(1024 1747)"/></g><g transform="translate(-940 -1642)"><circle class="c" cx="5.5" cy="5.5" r="5.5" transform="translate(1024 1747)"/></g><g transform="translate(-919 -1642)"><circle class="c" cx="5.5" cy="5.5" r="5.5" transform="translate(1024 1747)"/></g><g transform="translate(-898 -1642)"><circle class="c" cx="5.5" cy="5.5" r="5.5" transform="translate(1024 1747)"/></g><g transform="translate(-877 -1642)"><circle class="c" cx="5.5" cy="5.5" r="5.5" transform="translate(1024 1747)"/></g><g transform="translate(-856 -1642)"><circle class="c" cx="5.5" cy="5.5" r="5.5" transform="translate(1024 1747)"/></g><g transform="translate(-835 -1642)"><circle class="c" cx="5.5" cy="5.5" r="5.5" transform="translate(1024 1747)"/></g><g transform="translate(-814 -1642)"><circle class="c" cx="5.5" cy="5.5" r="5.5" transform="translate(1024 1747)"/></g><g transform="translate(-1024 -1621)"><circle class="c" cx="5.5" cy="5.5" r="5.5" transform="translate(1024 1747)"/></g><g transform="translate(-1003 -1621)"><circle class="c" cx="5.5" cy="5.5" r="5.5" transform="translate(1024 1747)"/></g><g transform="translate(-982 -1621)"><circle class="c" cx="5.5" cy="5.5" r="5.5" transform="translate(1024 1747)"/></g><g transform="translate(-961 -1621)"><circle class="c" cx="5.5" cy="5.5" r="5.5" transform="translate(1024 1747)"/></g><g transform="translate(-940 -1621)"><circle class="c" cx="5.5" cy="5.5" r="5.5" transform="translate(1024 1747)"/></g><g transform="translate(-919 -1621)"><circle class="c" cx="5.5" cy="5.5" r="5.5" transform="translate(1024 1747)"/></g><g transform="translate(-898 -1621)"><circle class="c" cx="5.5" cy="5.5" r="5.5" transform="translate(1024 1747)"/></g><g transform="translate(-877 -1621)"><circle class="c" cx="5.5" cy="5.5" r="5.5" transform="translate(1024 1747)"/></g><g transform="translate(-856 -1621)"><circle class="c" cx="5.5" cy="5.5" r="5.5" transform="translate(1024 1747)"/></g><g transform="translate(-835 -1621)"><circle class="c" cx="5.5" cy="5.5" r="5.5" transform="translate(1024 1747)"/></g><g transform="translate(-814 -1621)"><circle class="c" cx="5.5" cy="5.5" r="5.5" transform="translate(1024 1747)"/></g><g transform="translate(-1024 -1600)"><circle class="c" cx="5.5" cy="5.5" r="5.5" transform="translate(1024 1747)"/></g><g transform="translate(-1003 -1600)"><circle class="c" cx="5.5" cy="5.5" r="5.5" transform="translate(1024 1747)"/></g><g transform="translate(-982 -1600)"><circle class="c" cx="5.5" cy="5.5" r="5.5" transform="translate(1024 1747)"/></g><g transform="translate(-961 -1600)"><circle class="c" cx="5.5" cy="5.5" r="5.5" transform="translate(1024 1747)"/></g><g transform="translate(-940 -1600)"><circle class="c" cx="5.5" cy="5.5" r="5.5" transform="translate(1024 1747)"/></g><g transform="translate(-919 -1600)"><circle class="c" cx="5.5" cy="5.5" r="5.5" transform="translate(1024 1747)"/></g><g transform="translate(-898 -1600)"><circle class="c" cx="5.5" cy="5.5" r="5.5" transform="translate(1024 1747)"/></g><g transform="translate(-877 -1600)"><circle class="c" cx="5.5" cy="5.5" r="5.5" transform="translate(1024 1747)"/></g><g transform="translate(-856 -1600)"><circle class="c" cx="5.5" cy="5.5" r="5.5" transform="translate(1024 1747)"/></g><g transform="translate(-835 -1600)"><circle class="c" cx="5.5" cy="5.5" r="5.5" transform="translate(1024 1747)"/></g><g transform="translate(-814 -1600)"><circle class="c" cx="5.5" cy="5.5" r="5.5" transform="translate(1024 1747)"/></g><g transform="translate(-1024 -1579)"><circle class="c" cx="5.5" cy="5.5" r="5.5" transform="translate(1024 1747)"/></g><g transform="translate(-1003 -1579)"><circle class="c" cx="5.5" cy="5.5" r="5.5" transform="translate(1024 1747)"/></g><g transform="translate(-982 -1579)"><circle class="c" cx="5.5" cy="5.5" r="5.5" transform="translate(1024 1747)"/></g><g transform="translate(-961 -1579)"><circle class="c" cx="5.5" cy="5.5" r="5.5" transform="translate(1024 1747)"/></g><g transform="translate(-940 -1579)"><circle class="c" cx="5.5" cy="5.5" r="5.5" transform="translate(1024 1747)"/></g><g transform="translate(-919 -1579)"><circle class="c" cx="5.5" cy="5.5" r="5.5" transform="translate(1024 1747)"/></g><g transform="translate(-898 -1579)"><circle class="c" cx="5.5" cy="5.5" r="5.5" transform="translate(1024 1747)"/></g><g transform="translate(-877 -1579)"><circle class="c" cx="5.5" cy="5.5" r="5.5" transform="translate(1024 1747)"/></g><g transform="translate(-856 -1579)"><circle class="c" cx="5.5" cy="5.5" r="5.5" transform="translate(1024 1747)"/></g><g transform="translate(-835 -1579)"><circle class="c" cx="5.5" cy="5.5" r="5.5" transform="translate(1024 1747)"/></g><g transform="translate(-814 -1579)"><circle class="c" cx="5.5" cy="5.5" r="5.5" transform="translate(1024 1747)"/></g><g transform="translate(-1024 -1558)"><circle class="c" cx="5.5" cy="5.5" r="5.5" transform="translate(1024 1747)"/></g><g transform="translate(-1003 -1558)"><circle class="c" cx="5.5" cy="5.5" r="5.5" transform="translate(1024 1747)"/></g><g transform="translate(-982 -1558)"><circle class="c" cx="5.5" cy="5.5" r="5.5" transform="translate(1024 1747)"/></g><g transform="translate(-961 -1558)"><circle class="c" cx="5.5" cy="5.5" r="5.5" transform="translate(1024 1747)"/></g><g transform="translate(-940 -1558)"><circle class="c" cx="5.5" cy="5.5" r="5.5" transform="translate(1024 1747)"/></g><g transform="translate(-919 -1558)"><circle class="c" cx="5.5" cy="5.5" r="5.5" transform="translate(1024 1747)"/></g><g transform="translate(-898 -1558)"><circle class="c" cx="5.5" cy="5.5" r="5.5" transform="translate(1024 1747)"/></g><g transform="translate(-877 -1558)"><circle class="c" cx="5.5" cy="5.5" r="5.5" transform="translate(1024 1747)"/></g><g transform="translate(-856 -1558)"><circle class="c" cx="5.5" cy="5.5" r="5.5" transform="translate(1024 1747)"/></g><g transform="translate(-835 -1558)"><circle class="c" cx="5.5" cy="5.5" r="5.5" transform="translate(1024 1747)"/></g><g transform="translate(-814 -1558)"><circle class="c" cx="5.5" cy="5.5" r="5.5" transform="translate(1024 1747)"/></g><g transform="translate(-1024 -1537)"><circle class="c" cx="5.5" cy="5.5" r="5.5" transform="translate(1024 1747)"/></g><g transform="translate(-1003 -1537)"><circle class="c" cx="5.5" cy="5.5" r="5.5" transform="translate(1024 1747)"/></g><g transform="translate(-982 -1537)"><circle class="c" cx="5.5" cy="5.5" r="5.5" transform="translate(1024 1747)"/></g><g transform="translate(-961 -1537)"><circle class="c" cx="5.5" cy="5.5" r="5.5" transform="translate(1024 1747)"/></g><g transform="translate(-940 -1537)"><circle class="c" cx="5.5" cy="5.5" r="5.5" transform="translate(1024 1747)"/></g><g transform="translate(-919 -1537)"><circle class="c" cx="5.5" cy="5.5" r="5.5" transform="translate(1024 1747)"/></g><g transform="translate(-898 -1537)"><circle class="c" cx="5.5" cy="5.5" r="5.5" transform="translate(1024 1747)"/></g><g transform="translate(-877 -1537)"><circle class="c" cx="5.5" cy="5.5" r="5.5" transform="translate(1024 1747)"/></g><g transform="translate(-856 -1537)"><circle class="c" cx="5.5" cy="5.5" r="5.5" transform="translate(1024 1747)"/></g><g transform="translate(-835 -1537)"><circle class="c" cx="5.5" cy="5.5" r="5.5" transform="translate(1024 1747)"/></g><g transform="translate(-814 -1537)"><circle class="c" cx="5.5" cy="5.5" r="5.5" transform="translate(1024 1747)"/></g><g transform="translate(-1024 -1516)"><circle class="c" cx="5.5" cy="5.5" r="5.5" transform="translate(1024 1747)"/></g><g transform="translate(-1003 -1516)"><circle class="c" cx="5.5" cy="5.5" r="5.5" transform="translate(1024 1747)"/></g><g transform="translate(-982 -1516)"><circle class="c" cx="5.5" cy="5.5" r="5.5" transform="translate(1024 1747)"/></g><g transform="translate(-961 -1516)"><circle class="c" cx="5.5" cy="5.5" r="5.5" transform="translate(1024 1747)"/></g><g transform="translate(-940 -1516)"><circle class="c" cx="5.5" cy="5.5" r="5.5" transform="translate(1024 1747)"/></g><g transform="translate(-919 -1516)"><circle class="c" cx="5.5" cy="5.5" r="5.5" transform="translate(1024 1747)"/></g><g transform="translate(-898 -1516)"><circle class="c" cx="5.5" cy="5.5" r="5.5" transform="translate(1024 1747)"/></g><g transform="translate(-877 -1516)"><circle class="c" cx="5.5" cy="5.5" r="5.5" transform="translate(1024 1747)"/></g><g transform="translate(-856 -1516)"><circle class="c" cx="5.5" cy="5.5" r="5.5" transform="translate(1024 1747)"/></g><g transform="translate(-835 -1516)"><circle class="c" cx="5.5" cy="5.5" r="5.5" transform="translate(1024 1747)"/></g><g transform="translate(-814 -1516)"><circle class="c" cx="5.5" cy="5.5" r="5.5" transform="translate(1024 1747)"/></g><g transform="translate(-1024 -1495)"><circle class="c" cx="5.5" cy="5.5" r="5.5" transform="translate(1024 1747)"/></g><g transform="translate(-1003 -1495)"><circle class="c" cx="5.5" cy="5.5" r="5.5" transform="translate(1024 1747)"/></g><g transform="translate(-982 -1495)"><circle class="c" cx="5.5" cy="5.5" r="5.5" transform="translate(1024 1747)"/></g><g transform="translate(-961 -1495)"><circle class="c" cx="5.5" cy="5.5" r="5.5" transform="translate(1024 1747)"/></g><g transform="translate(-940 -1495)"><circle class="c" cx="5.5" cy="5.5" r="5.5" transform="translate(1024 1747)"/></g><g transform="translate(-919 -1495)"><circle class="c" cx="5.5" cy="5.5" r="5.5" transform="translate(1024 1747)"/></g><g transform="translate(-898 -1495)"><circle class="c" cx="5.5" cy="5.5" r="5.5" transform="translate(1024 1747)"/></g><g transform="translate(-877 -1495)"><circle class="c" cx="5.5" cy="5.5" r="5.5" transform="translate(1024 1747)"/></g><g transform="translate(-856 -1495)"><circle class="c" cx="5.5" cy="5.5" r="5.5" transform="translate(1024 1747)"/></g><g transform="translate(-835 -1495)"><circle class="c" cx="5.5" cy="5.5" r="5.5" transform="translate(1024 1747)"/></g><g transform="translate(-814 -1495)"><circle class="c" cx="5.5" cy="5.5" r="5.5" transform="translate(1024 1747)"/></g></g></svg>