<svg xmlns="http://www.w3.org/2000/svg" width="53.894" height="63.705" viewBox="0 0 53.894 63.705"><defs><style>.a{fill:#374957;}</style></defs><g transform="translate(-39.425)"><g transform="translate(39.425 0)"><path class="a" d="M66.372,63.7A27,27,0,0,1,43.3,22.764a1.244,1.244,0,0,1,2.309.644c0,2.717,2.22,5.876,5.083,5.876a5.116,5.116,0,0,0,4.342-7.8,9.155,9.155,0,0,1,7.3-14.008,3.725,3.725,0,0,0,2.971-5.6A1.244,1.244,0,0,1,66.566.015,9.337,9.337,0,0,1,72.8,14.567l-.014.02a5.548,5.548,0,1,0,10.035,3.479,1.244,1.244,0,0,1,2.1-.856,26.96,26.96,0,0,1,4.052,34.223,1.244,1.244,0,0,1-2.086-1.357,24.479,24.479,0,0,0-2.08-29.4,8.042,8.042,0,1,1-14.047-7.538,6.837,6.837,0,0,0,1.219-3.9,6.907,6.907,0,0,0-3.707-6.077q.029.3.029.615a6.2,6.2,0,0,1-5.83,6.186h-.014a6.666,6.666,0,0,0-5.315,10.2A7.6,7.6,0,0,1,50.7,31.773,7.134,7.134,0,0,1,45.27,29.09a9.12,9.12,0,0,1-1.345-2.113,24.514,24.514,0,0,0,22.447,34.24,24.4,24.4,0,0,0,12.9-3.674,1.244,1.244,0,1,1,1.314,2.113A26.881,26.881,0,0,1,66.372,63.7Z" transform="translate(-39.425 0)"/></g><g transform="translate(56.318 33.672)"><g transform="translate(5.366 1.74)"><path class="a" d="M219.565,301.2a1.245,1.245,0,0,1-1.118-1.788l6.846-14.1a1.244,1.244,0,1,1,2.238,1.087l-6.846,14.1A1.244,1.244,0,0,1,219.565,301.2Z" transform="translate(-218.322 -284.609)"/></g><path class="a" d="M179.18,278.59a3.982,3.982,0,1,1,3.982-3.982A3.987,3.987,0,0,1,179.18,278.59Zm0-5.476a1.494,1.494,0,1,0,1.494,1.494A1.5,1.5,0,0,0,179.18,273.113Z" transform="translate(-175.198 -270.625)"/><g transform="translate(12.143 12.143)"><path class="a" d="M276.773,376.182a3.982,3.982,0,1,1,3.982-3.982A3.987,3.987,0,0,1,276.773,376.182Zm0-5.476a1.494,1.494,0,1,0,1.494,1.494A1.5,1.5,0,0,0,276.773,370.707Z" transform="translate(-272.791 -368.218)"/></g></g><g transform="translate(83.089 53.899)"><path class="a" d="M391.6,435.677a1.247,1.247,0,1,1,.879-.365A1.253,1.253,0,0,1,391.6,435.677Z" transform="translate(-390.359 -433.189)"/></g></g></svg>