<svg xmlns="http://www.w3.org/2000/svg" width="61.79" height="61.79" viewBox="0 0 61.79 61.79"><defs><style>.a{fill:#374957;}</style></defs><g transform="translate(-1022 -4513)"><g transform="translate(1022 4513)"><g transform="translate(0)"><g transform="translate(0 0)"><path class="a" d="M56.356,13.391a1.207,1.207,0,1,0-1.988,1.369,28.294,28.294,0,0,1,4.982,14.928H55.968A25.1,25.1,0,0,0,13.145,13.145a1.207,1.207,0,0,0,0,1.707l1.383,1.383H7.666V9.373l1.383,1.383a1.207,1.207,0,0,0,1.707,0A28.487,28.487,0,0,1,47.03,7.422,1.207,1.207,0,0,0,48.4,5.434,30.9,30.9,0,0,0,9.919,8.212L7.313,5.606a1.207,1.207,0,0,0-2.06.853V17.442a1.207,1.207,0,0,0,1.207,1.207h9.6A19.239,19.239,0,0,0,43.619,45.325l2.443,2.443A22.689,22.689,0,0,1,8.206,30.895,1.207,1.207,0,0,0,7,29.688H1.207A1.207,1.207,0,0,0,0,30.895,30.9,30.9,0,0,0,51.871,53.578l2.606,2.606a1.207,1.207,0,0,0,2.06-.853V44.348a1.207,1.207,0,0,0-1.207-1.207h-9.6A19.239,19.239,0,0,0,18.171,16.464l-2.443-2.443A22.689,22.689,0,0,1,53.583,30.895,1.207,1.207,0,0,0,54.79,32.1h5.793a1.207,1.207,0,0,0,1.207-1.207,30.722,30.722,0,0,0-5.433-17.5ZM54.123,45.555v6.862l-1.383-1.383a1.207,1.207,0,0,0-1.707,0A28.481,28.481,0,0,1,2.439,32.1H5.821A25.1,25.1,0,0,0,48.644,48.644a1.207,1.207,0,0,0,0-1.707l-1.383-1.383ZM30.895,14.06A16.835,16.835,0,1,1,14.06,30.895,16.854,16.854,0,0,1,30.895,14.06Z" transform="translate(0 0)"/><path class="a" d="M247.207,138.914a1.207,1.207,0,1,0-.853-.354A1.215,1.215,0,0,0,247.207,138.914Z" transform="translate(-216.312 -120.027)"/><path class="a" d="M247.207,355.5a1.207,1.207,0,1,0,.853.354A1.216,1.216,0,0,0,247.207,355.5Z" transform="translate(-216.312 -312.597)"/><path class="a" d="M356.707,248.414a1.207,1.207,0,1,0-.853-.354A1.215,1.215,0,0,0,356.707,248.414Z" transform="translate(-312.597 -216.312)"/><path class="a" d="M136.854,248.06a1.206,1.206,0,1,0-.354-.853A1.216,1.216,0,0,0,136.854,248.06Z" transform="translate(-120.027 -216.312)"/><path class="a" d="M213.206,189a1.2,1.2,0,0,0,.853-.353l1.331-1.331a4.1,4.1,0,0,0,5.544-5.544l5.945-5.945a1.207,1.207,0,1,0-1.707-1.707l-5.945,5.945a4.1,4.1,0,0,0-5.544,5.544l-1.331,1.331a1.207,1.207,0,0,0,.853,2.06Zm4.1-7a1.69,1.69,0,1,1-1.69,1.69A1.691,1.691,0,0,1,217.309,182.005Z" transform="translate(-186.415 -152.8)"/><path class="a" d="M421.157,74.464a1.207,1.207,0,1,0-.853-.354A1.215,1.215,0,0,0,421.157,74.464Z" transform="translate(-369.269 -63.355)"/></g></g></g></g></svg>