<svg xmlns="http://www.w3.org/2000/svg" width="65.589" height="57.338" viewBox="0 0 65.589 57.338"><defs><style>.a{fill:#374957;stroke:#374957;}</style></defs><g transform="translate(-2991.978 -3308.783)"><g transform="translate(2992.478 3309.283)"><path class="a" d="M94.9,68.89a.339.339,0,0,0,.033-.055l.005-.011a.538.538,0,0,0,.023-.07s0-.009,0-.014a.338.338,0,0,0,.008-.074h0V53.759c0-.009,0-.017,0-.026a.115.115,0,0,0,0-.022.049.049,0,0,0,0-.017.187.187,0,0,0-.005-.024c0-.008,0-.017-.006-.023a.106.106,0,0,0-.005-.016l-.01-.024s0-.01-.007-.016l-4.008-7.863a.4.4,0,0,0-.212-.189l-9.912-3.763h0a.029.029,0,0,1-.013,0l-.014,0s-.006,0-.01,0h-.01l-.015,0-.014,0c-.009,0-.019,0-.026,0h-.039a.087.087,0,0,0-.02,0h-.02l-.013,0a.044.044,0,0,0-.022,0h-.016a.019.019,0,0,1-.009,0l-.012,0h0L68.966,45.342a.39.39,0,0,0-.14.077l-6.154,5.337L56.517,45.42a.358.358,0,0,0-.141-.079L44.811,41.765h0a.251.251,0,0,0-.041-.009l-.014,0a.063.063,0,0,1-.019,0h-.074l-.031,0h-.012a.038.038,0,0,1-.015,0h-.011l-.009,0-.014,0-.014,0L34.639,45.54a.4.4,0,0,0-.209.187l-4.01,7.864a.084.084,0,0,1-.007.015.119.119,0,0,1-.01.024l-.006.016a.238.238,0,0,1-.006.023c0,.007,0,.016,0,.024s0,.012,0,.017a.215.215,0,0,0,0,.022c0,.009,0,.019,0,.026v14.91h0a.338.338,0,0,0,.009.072s0,.009,0,.015a.365.365,0,0,0,.023.068.109.109,0,0,0,.005.011.377.377,0,0,0,.032.055.082.082,0,0,0,.007.011l0,.006,6.7,8.61h0a.447.447,0,0,0,.063.063L50.873,88.64h0L62.425,98a.085.085,0,0,1,.016.009.126.126,0,0,0,.027.017.142.142,0,0,0,.027.016l.009.006h.01a.294.294,0,0,0,.063.024c.006,0,.011,0,.016,0a.325.325,0,0,0,.079.01l.014,0a.365.365,0,0,0,.061-.006.172.172,0,0,0,.029-.008.208.208,0,0,0,.046-.017l.019,0a.056.056,0,0,1,.014-.008l.014-.01A.33.33,0,0,0,62.913,98l.006,0L74.471,88.64h0l13.65-11.058h0a.494.494,0,0,0,.062-.063h0l6.7-8.61,0-.006Zm-7.41,8.2-13.3,10.778L63.483,82.1l24-13.531ZM63.064,96.872V82.761L73.521,88.4ZM51.823,88.4l10.456-5.64V96.872ZM37.374,66.783,31.253,53.874,43.976,43.25ZM81.367,43.25,94.091,53.874,87.971,66.783Zm-18.3,38.184V60.1l22.8,7.537,1.051.347-6.821,3.847ZM38.431,67.989,62.279,60.1V81.434L44.8,71.578Zm48.868-.7-23.889-7.9L80.449,42.878Zm-49.254,0L44.9,42.878l17.04,16.514Zm-6.883.936V55.509L36.88,67.57l-.05,0Zm57.3-.66,5.718-12.06V68.227Zm4.891-15.329-5.637-4.706-5.029-4.2,7.595,2.882ZM69.277,46.065,79.2,43,63.064,58.637V51.454Zm-7,5.389v7.183L46.144,43l9.923,3.067ZM35.06,46.217l7.594-2.881-5.365,4.478-5.3,4.427Zm2.017,22.119v7.8l-5.571-7.16Zm.783.231,24,13.531-10.7,5.769L37.86,77.089Zm50.408,7.569v-7.8l4.408.507,1.161.132Z" transform="translate(-30.377 -41.748)"/></g></g></svg>