<svg xmlns="http://www.w3.org/2000/svg" width="64.589" height="64.59" viewBox="0 0 64.589 64.59"><defs><style>.a{fill:#374957;}</style></defs><g transform="translate(-0.002)"><g transform="translate(43.948 7.181)"><path class="a" d="M360.1,66.118a13.071,13.071,0,0,1-.082-4.411,4.3,4.3,0,0,0-1.054-3.62,3.918,3.918,0,0,0-2.785-1.162,3.75,3.75,0,0,0-3.607,2.669,4.2,4.2,0,0,0-2.988,1.23,4.3,4.3,0,0,0-.807,4.866,4.467,4.467,0,0,0,.884,1.254,4.637,4.637,0,0,0,2.659,1.28,3.93,3.93,0,0,0,.56.037,13.4,13.4,0,0,0,2.6-.383,13.041,13.041,0,0,1,2.347-.36,1.31,1.31,0,0,1,.492.064l.029.012a1.262,1.262,0,0,0,1.751-1.477Zm-2.591-4.683a17.405,17.405,0,0,0-.134,3.577,18.178,18.178,0,0,0-2.413.4,11.955,11.955,0,0,1-2.286.317,2.386,2.386,0,0,1-1.231-.566,1.951,1.951,0,0,1-.387-.547,1.767,1.767,0,0,1,.31-2,1.69,1.69,0,0,1,1.206-.491,1.857,1.857,0,0,1,.674.127,1.262,1.262,0,0,0,1.7-1.358,1.252,1.252,0,0,1,.344-1.08,1.236,1.236,0,0,1,.882-.358,1.411,1.411,0,0,1,1,.423A1.855,1.855,0,0,1,357.509,61.435Z" transform="translate(-348.356 -56.925)"/></g><g transform="translate(0.003 0)"><g transform="translate(0)"><path class="a" d="M62.643,8.331,56.266,1.953A6.572,6.572,0,0,0,51.594,0a6.206,6.206,0,0,0-4.421,1.814l-11.2,11.074a6.39,6.39,0,0,0-.863,7.828A15.7,15.7,0,0,0,33.077,22.3L30.948,20.17a6.676,6.676,0,0,0-4.768-1.925,8.155,8.155,0,0,0-5.7,2.433l-5.973,5.974c-3.025,3.026-3.253,7.721-.508,10.467l1.615,1.615a3.457,3.457,0,0,1,1.052,1.828,1.221,1.221,0,0,1-.05.7,6.885,6.885,0,0,1-1.436-.709,5.7,5.7,0,0,0-2.692-1.028,2.15,2.15,0,0,0-1.554.635c-1.363,1.363-.487,3.231.153,4.594a6.06,6.06,0,0,1,.634,1.74H11.7a4.4,4.4,0,0,1-1.251-.429,6.067,6.067,0,0,0-2.394-.671,2.792,2.792,0,0,0-2.013.837c-1.444,1.444-.662,3.177-.194,4.212.449.994.455,1.193.327,1.36-.375.488-1.362.073-1.821-.09a5.777,5.777,0,0,0-1.938-.443c-.749,0-2.418.054-2.324,1.779L0,62.444A1.261,1.261,0,0,0,1.027,63.7l4.549.872a1.261,1.261,0,0,0,1.134-.352l17.1-17.286.92.921A6.676,6.676,0,0,0,29.5,49.775h0a8.154,8.154,0,0,0,5.7-2.433l5.973-5.974c3.025-3.026,3.253-7.721.508-10.467l-2.238-2.238L41.11,26.99l1.375,1.375a6.572,6.572,0,0,0,4.672,1.953A6.207,6.207,0,0,0,51.578,28.5l11.2-11.074A6.445,6.445,0,0,0,62.643,8.331ZM36.774,22.653l2.552,2.552-1.672,1.672-2.791-2.792A12.518,12.518,0,0,1,36.774,22.653Zm3.117,10.031c1.762,1.762,1.534,4.857-.508,6.9l-5.973,5.974A5.615,5.615,0,0,1,29.5,47.251h0a4.172,4.172,0,0,1-2.984-1.185L24.7,44.248a1.262,1.262,0,0,0-.892-.37h0a1.261,1.261,0,0,0-.894.374L5.389,61.962l-2.854-.547.076-7.6a18.5,18.5,0,0,0,3.028.755,3.19,3.19,0,0,0,2.324-.981c1.431-1.431.653-3.154.188-4.183-.455-1.007-.457-1.211-.321-1.389.2-.265,1.119.146,1.608.361a5.714,5.714,0,0,0,2.266.642,2.523,2.523,0,0,0,1.821-.75c1.359-1.36.485-3.224-.154-4.585a8.9,8.9,0,0,1-.62-1.563,10.577,10.577,0,0,1,1.159.614,5.876,5.876,0,0,0,2.8,1.062h0a2.273,2.273,0,0,0,1.641-.672,3.35,3.35,0,0,0,.805-2.977A5.978,5.978,0,0,0,17.4,36.95l-1.614-1.615c-1.762-1.762-1.534-4.857.508-6.9l5.973-5.974a5.616,5.616,0,0,1,3.914-1.693,4.17,4.17,0,0,1,2.983,1.185l2.153,2.154a14.463,14.463,0,0,0-2.1,3.085,3.554,3.554,0,0,0-1.8-.5,3.233,3.233,0,0,0-2.305.942l-1.9,1.9a3.424,3.424,0,0,0,.12,4.831l4.157,4.157a3.6,3.6,0,0,0,2.526,1.062,3.232,3.232,0,0,0,2.305-.942l1.9-1.9a3.424,3.424,0,0,0-.12-4.831L31.19,29A10.3,10.3,0,0,1,33.105,25.9Zm-11.313-.575c.336.879.793.982,1.161,1.009a1.449,1.449,0,0,0,.7-.155,1.048,1.048,0,0,0,.5-.638l1.369,1.369a.907.907,0,0,1,.12,1.264l-1.9,1.9a.723.723,0,0,1-.521.2,1.065,1.065,0,0,1-.741-.323l-4.157-4.157a.907.907,0,0,1-.12-1.264l1.9-1.9a.724.724,0,0,1,.521-.2,1.066,1.066,0,0,1,.741.323s.248.27.247.279A5.378,5.378,0,0,0,28.579,32.109ZM61,15.641,49.8,26.715a3.7,3.7,0,0,1-2.642,1.079,4.066,4.066,0,0,1-2.888-1.213l-4.93-4.931A4.087,4.087,0,0,1,42,21.96a1.356,1.356,0,0,0,1.7-.561,1.084,1.084,0,0,0-.3-1.472,3.682,3.682,0,0,0-.621-.383,7.355,7.355,0,0,0-5.409.028,3.872,3.872,0,0,1,.38-4.9L48.952,3.6a3.7,3.7,0,0,1,2.642-1.08,4.066,4.066,0,0,1,2.888,1.213l6.377,6.378A3.919,3.919,0,0,1,61,15.641Z" transform="translate(-0.003 0)"/></g></g><g transform="translate(27.23 11.708)"><path class="a" d="M218.295,93.672a1.253,1.253,0,0,0-.632-.727s0,0,0,0a1.258,1.258,0,0,0-1.692.565,1.262,1.262,0,0,0,.565,1.692,1.262,1.262,0,0,0,1.76-1.529Z" transform="translate(-215.836 -92.81)"/></g><g transform="translate(13.063 11.462)"><path class="a" d="M115.254,91.768a1.268,1.268,0,0,0-1.21-.908,1.254,1.254,0,0,0-.354.05,19.784,19.784,0,0,0-6.863,3.967,30.539,30.539,0,0,0-2.97,2.808l0,0a1.262,1.262,0,1,0,1.881,1.682l.04-.044a29.06,29.06,0,0,1,2.98-2.769,17.779,17.779,0,0,1,5.642-3.226,1.261,1.261,0,0,0,.858-1.564Z" transform="translate(-103.533 -90.86)"/></g><g transform="translate(30.825 47.057)"><path class="a" d="M255.992,374.19a1.262,1.262,0,0,0-1.258-1.169,1.261,1.261,0,0,0-.955.436l-.039.045a29.138,29.138,0,0,1-2.934,2.818,17.775,17.775,0,0,1-5.586,3.32,1.261,1.261,0,1,0,.747,2.409,15.934,15.934,0,0,0,3.729-1.784,26.818,26.818,0,0,0,3.067-2.3,30.556,30.556,0,0,0,2.923-2.86l0,0A1.254,1.254,0,0,0,255.992,374.19Z" transform="translate(-244.331 -373.021)"/></g><g transform="translate(25.903 53.455)"><path class="a" d="M207.12,423.864h0a1.242,1.242,0,0,0-.542-.124,1.266,1.266,0,0,0-1.138.718,1.262,1.262,0,0,0,.592,1.682,0,0,0,0,1,0,0,1.251,1.251,0,0,0,.544.124,1.262,1.262,0,0,0,.545-2.4Z" transform="translate(-205.313 -423.74)"/></g></g></svg>