<svg xmlns="http://www.w3.org/2000/svg" width="172.03" height="158.813" viewBox="0 0 172.03 158.813"><defs><style>.a{fill:#d7be82;fill-rule:evenodd;}</style></defs><path class="a" d="M364.181,334.921c-9.748,1.72-17.913-5.144-26.777-4.634-12.028.695-17.7,1.845-27.866,7.882a1.359,1.359,0,0,1-1.592-.143l-.01-.009a1.356,1.356,0,0,1-.268-1.7c5.578-9.556,8.069-16.2,9.125-27.47,0-.03,0-.066.008-.095.84-9.045-6.315-18.738-2.516-29.738,2.7-7.834,5.739-9.7,11.561-13.425-6.431-4.009-11.281-6.806-12.5-17.808-1.022-9.294,4.413-16.177,3.359-26.568a56.467,56.467,0,0,0-9.2-26.206,1.353,1.353,0,0,1,.186-1.687l.214-.212a1.354,1.354,0,0,1,1.672-.175c7.877,4.935,15.538,7.483,26.223,8.144,10.313.636,17.181-4.848,26.114-4.475,11.063.46,14.253,5.874,18.263,12.306,3.607-5.894,5.6-8.855,13.426-11.56,11-3.8,20.432,4.99,29.474,4.1,11.986-1.18,17.611-2.311,27.763-8.345a1.358,1.358,0,0,1,1.595.146l.079.07a1.352,1.352,0,0,1,.238,1.735,56.439,56.439,0,0,0-9.165,26.156c-1.058,10.391,4.381,17.275,3.355,26.568a23.3,23.3,0,0,1-2.7,9.257,9.8,9.8,0,0,0-2.533-.334c-.157,0-.314,0-.474.011a12.188,12.188,0,0,0-6.844,2.479,17.017,17.017,0,0,0,3.136-9.64c.19-6.248-3.166-9.321-2.984-19.02.189-9.527,3.635-15.942,7.645-23.212a2.5,2.5,0,0,0-.091-2.889,2.622,2.622,0,0,0-3.446-.84c-7.414,4.689-12.684,6.361-21.445,6.807-8.247.417-15.566-4.009-20.791-4.009-5.645,0-8.786,2.4-13.237,5.87-1.119.981-1.572,1.38-2.8,1.446a3.393,3.393,0,0,1-2.42-.7c-4.43-3.972-7.592-6.782-13.705-6.712-8.111.095-9.231,4.571-20.511,4.2-8.86-.294-14.3-1.983-21.862-6.713a2.755,2.755,0,0,0-3.121.278,2.969,2.969,0,0,0-.28,3.637c4.582,7.044,6.209,11.948,7.172,20.324,1.219,10.533-2.68,12.781-2.791,21.067-.095,7.181,1.96,8.766,5.591,13.334.815,1.019,1.84,1.408,1.96,2.7a3.16,3.16,0,0,1-1.029,2.7c-3.256,3.449-6.789,7.91-6.521,13.893.375,8.386,3.351,11.4,2.985,18.827a53.416,53.416,0,0,1-.984,8.3,41.264,41.264,0,0,1-6.2,14.262c-.93,1.445-.93,2.845,0,3.823a2.9,2.9,0,0,0,3.825.467c7.485-4.557,12.783-5.867,21.536-6.433a22.3,22.3,0,0,1,9.075,1.446,25.4,25.4,0,0,0,4.867,2.921,29.854,29.854,0,0,0,11.2,2.587q-.336.386-.651.763A36.851,36.851,0,0,0,364.181,334.921Zm5.261-103.912a4.129,4.129,0,0,1,1.331-3.461,5.36,5.36,0,0,1,5.508-.5,3.713,3.713,0,0,1,1.586,1.518,4.642,4.642,0,0,1,.543,2.292,4.063,4.063,0,0,1-1.268,3.2,5.157,5.157,0,0,1-6.427.011,3.862,3.862,0,0,1-1.272-3.059m-.535,2.745a5.042,5.042,0,0,0,2.009,2.064,5.953,5.953,0,0,0,3.009.754,6.292,6.292,0,0,0,2.894-.682,4.844,4.844,0,0,0,2.071-2.015,6.136,6.136,0,0,0,.729-3.015,6.265,6.265,0,0,0-.692-2.973,4.951,4.951,0,0,0-2.022-2.047,6.016,6.016,0,0,0-2.976-.732,5.625,5.625,0,0,0-4.109,1.561,5.754,5.754,0,0,0-1.6,4.319A5.915,5.915,0,0,0,368.907,233.754ZM358.117,236.4h1.338v-5.224h5.216V236.4h1.342V225.3h-1.342v4.571h-5.216V225.3h-1.338V236.4m25,0h1.169V226.6h2.886v-1.3h-6.945v1.3h2.89V236.4m5.13,0h6.81v-1.3h-5.6v-3.779h5.039v-1.3h-5.039V226.6h5.381v-1.3h-6.587V236.4m8,0h5.879v-1.3H397.5V225.3h-1.252V236.4m-57.613,8.571a6.947,6.947,0,0,1,2.293,5.469,6.415,6.415,0,0,1-2.293,5.172V244.967m0,13.011a8.268,8.268,0,0,0,2.223-2.017,9.912,9.912,0,0,0,.321-11.05,8.592,8.592,0,0,0-4.322-3.322V261.6h1.779Zm6.464-15.543v15.977a3.749,3.749,0,0,0,1.136,3.076,2.657,2.657,0,0,0,1.758.6,2.615,2.615,0,0,0,2.087-.954,4.094,4.094,0,0,0,.807-2.722V242.435H349.1v15.977c0,1.052-.383,1.578-1.136,1.578-.729,0-1.087-.526-1.087-1.578V242.435h-1.787m7.444,13.229,1.041,1.96h1.531v.789q0,3.186,2.45,3.183H360.2V259.5h-2.643c-.305,0-.5-.1-.577-.3a2.157,2.157,0,0,1-.09-.789v-.789h3.31v-1.96h-3.31V244.528h3.31v-2.094h-5.093v13.229h-2.573m12.252,5.932v-12.52l2.108,4.111v8.41h1.782V242.435H366.9v6.94l-3.891-7.949V261.6h1.783m9.444,0V244.528H376.2v-2.094h-5.7v2.094h1.947V261.6h1.782m2.61-5.932,1.045,1.96h1.524v.789q0,3.186,2.458,3.183h2.638V259.5h-2.638c-.309,0-.5-.1-.581-.3a2.109,2.109,0,0,1-.095-.789v-.789h3.314v-1.96H381.2V244.528h3.314v-2.094h-5.1v13.229h-2.569m16.18-10.7a6.96,6.96,0,0,1,2.293,5.469,6.437,6.437,0,0,1-2.293,5.228v-10.7m-3.31,12.656h1.531V261.6h1.779v-3.972h1.527c.342,0,.552.067.634.2a1.464,1.464,0,0,1,.132.749v3.02H397.1v-3.02a5.244,5.244,0,0,0-.231-1.879,1.86,1.86,0,0,0-1.627-1.032,8.685,8.685,0,0,0,1.857-5.474,9.563,9.563,0,0,0-1.367-5.007,7.943,7.943,0,0,0-4.488-3.594v14.075h-2.573Zm8.276-1.96,1.037,1.96h1.527v.789q0,3.186,2.458,3.183h2.638V259.5h-2.638c-.309,0-.5-.1-.577-.3a2.031,2.031,0,0,1-.095-.789v-.789h3.31v-1.96h-3.31V244.528h3.31v-2.094h-5.1v13.229H397.99m13.343,0V245.81q0-1.769,1.087-1.771t1.091,1.771v9.854h-2.178m-3.31,1.96h1.527V261.6h1.782v-3.972h2.178V261.6h1.782V245.81a5,5,0,0,0-.655-2.724,2.411,2.411,0,0,0-2.2-1.144,2.516,2.516,0,0,0-1.914.845,4.247,4.247,0,0,0-.976,3.023v9.854h-2.565Zm15.364,1.879h-2.009c-.494,0-.8-.111-.93-.327a3.458,3.458,0,0,1-.116-1.2V242.435h-1.782v15.543a5,5,0,0,0,.6,2.667,2.455,2.455,0,0,0,2.248.951h1.988V259.5m-.3,82.648-.238-4.372,4.257.366-3.215-2.915,3.269-2.8-4.31.249.358-4.319-2.874,3.263-2.758-3.318.247,4.374-4.265-.364,3.227,2.915-3.273,2.8,4.31-.247-.362,4.321,2.873-3.267,2.754,3.318m18.2,0-.243-4.372,4.261.366-3.224-2.915,3.273-2.8-4.311.249.363-4.319-2.878,3.263-2.75-3.318.235,4.374-4.257-.364,3.215,2.915-3.265,2.8,4.307-.247-.358,4.321,2.874-3.267,2.758,3.318m-36.386,0-.247-4.372,4.261.366-3.22-2.915,3.265-2.8-4.307.249.363-4.319-2.874,3.263-2.759-3.318.243,4.374-4.257-.364,3.215,2.915-3.265,2.8,4.307-.247-.363,4.321,2.878-3.267,2.758,3.318m54.737,0-.239-4.372,4.265.366-3.219-2.915,3.264-2.8-4.31.249.363-4.319-2.874,3.263-2.754-3.314.238,4.37-4.257-.364,3.219,2.915-3.273,2.8,4.31-.247-.358,4.321,2.874-3.267,2.75,3.318M364,280.674c.233-.2.467-.389.711-.568a14.9,14.9,0,0,1,8.353-3q3.75-.163,5.406,1.2a5.188,5.188,0,0,1,1.773,3.992,13.974,13.974,0,0,1-.255,2.766,14.531,14.531,0,0,0-.155,2.134,2.7,2.7,0,0,0,1.128,2.207,4.624,4.624,0,0,0,6.5-1.7,11.31,11.31,0,0,0,1.083-5.963,11.759,11.759,0,0,0-4.051-8.872q-3.806-3.245-11.117-2.925a25.2,25.2,0,0,0-13.608,4.509,25.515,25.515,0,0,0-6.233,6.208Zm115.3-11.286q-.216-4.937-2.1-7.3a5.354,5.354,0,0,0-4.576-2.243q-5.561.243-8.523,9.139a80.381,80.381,0,0,0-3.63,20.76,17.259,17.259,0,0,0-8.107,3.643,19.137,19.137,0,0,0-5.506,7.223,20.41,20.41,0,0,0-1.72,9.343c0,.079.014.153.017.232a19.483,19.483,0,0,1-1.809,1.755,7.237,7.237,0,0,1-4.436,1.666,3.387,3.387,0,0,1-2.672-.977,7.288,7.288,0,0,1-1.6-3.6,95.421,95.421,0,0,0,10.338-19.925q3.694-9.993,3.37-17.429-.228-5.189-2.068-7.895a5.308,5.308,0,0,0-4.839-2.575q-5.315.234-8.849,7.4a58.925,58.925,0,0,0-5.081,17,90.787,90.787,0,0,0-1.233,16.58,32.858,32.858,0,0,1-4.608.9,14.056,14.056,0,0,0-3.759-7.944,9.754,9.754,0,0,0-7.8-2.947,12.62,12.62,0,0,0-6.971,2.4,14.273,14.273,0,0,0-4.745,6.031,19.105,19.105,0,0,0-1.441,8.548c.008.185.038.36.052.541-2.269,1.7-4.711,3.625-7.351,5.791l.479-4.782q.755-7.106.853-9.116a3.016,3.016,0,0,0-.831-2.56,3.1,3.1,0,0,0-2.321-.807l-11.687.512a3.266,3.266,0,0,0-2.457,1.11,3.857,3.857,0,0,0-.817,2.789,3.584,3.584,0,0,0,1.058,2.741,3.884,3.884,0,0,0,2.725.727l6.375-.279-.542,7.663a23.555,23.555,0,0,1-8.914,2.331q-7.751.341-12.022-3.575-3.836-3.51-4.484-9.923H347.81v.038a22.537,22.537,0,0,0,3.445,11.495,19.835,19.835,0,0,0,8.588,7.358,26.689,26.689,0,0,0,12.432,2.179,25.052,25.052,0,0,0,9.6-2.486l-.137,1.2a81.047,81.047,0,0,0-9.761,9.446,27.056,27.056,0,0,0-4.6,7.151,14.717,14.717,0,0,0-1.054,6,6.918,6.918,0,0,0,2.227,5.069,7.079,7.079,0,0,0,5.272,1.741q5.94-.258,9.487-7.868t5.421-20.649c4.228-3.2,7.507-5.655,9.876-7.4a.054.054,0,0,0,.008.016,11.523,11.523,0,0,0,4.24,4.636,11.1,11.1,0,0,0,6.486,1.53,11.526,11.526,0,0,0,7.8-3.5,15.6,15.6,0,0,0,4.321-8.611,30.329,30.329,0,0,0,5.483-.975,22.639,22.639,0,0,0,2.582,7.2,8.69,8.69,0,0,0,8.375,4.64,12.515,12.515,0,0,0,7.064-2.437,24.234,24.234,0,0,0,2.167-1.834,9.406,9.406,0,0,0,.8.984,7.964,7.964,0,0,0,6.407,2.568,9.376,9.376,0,0,0,4.362-1.191,15.159,15.159,0,0,0,4.111-4.125l.07.246a10.15,10.15,0,0,0,2.084,3.917,3.958,3.958,0,0,0,3.015.934q3.437-.152,3.315-2.965a5.758,5.758,0,0,0-.325-1.676,83.41,83.41,0,0,1-2.442-10.037,126.548,126.548,0,0,0,8.11-19.328Q479.6,276.264,479.3,269.388Zm-101.658,72.2q-1.778,3.774-3.4,3.843-1.748.078-1.857-2.36a11.179,11.179,0,0,1,1.841-5.872,35.352,35.352,0,0,1,6.523-7.644Q379.417,337.819,377.644,341.591Zm35.3-28.219a4.543,4.543,0,0,1-3.4,1.776,3.88,3.88,0,0,1-3.236-1.675,8.735,8.735,0,0,1-1.574-5.191,11.85,11.85,0,0,1,1.361-6.853,4.91,4.91,0,0,1,4.049-2.588l.314-.014a10.6,10.6,0,0,0-.1,2.008,10.168,10.168,0,0,0,1.227,4.454,8.622,8.622,0,0,0,3.121,3.307A9.043,9.043,0,0,1,412.944,313.372Zm21.742-27.566a85.265,85.265,0,0,1,2.622-13.013q1.585-5.268,3.024-5.331,1.749-.076,1.956,4.675a40.165,40.165,0,0,1-2.037,13.52,80.467,80.467,0,0,1-6.42,14.965A92.846,92.846,0,0,1,434.686,285.806Zm23.923,26.568a3.788,3.788,0,0,1-2.365,1.043q-3.126.136-3.326-4.427a14.491,14.491,0,0,1,1.9-7.972,10.034,10.034,0,0,1,5.49-4.811q-.019,1.067.069,3a69.178,69.178,0,0,0,1.038,9.409A17.764,17.764,0,0,1,458.609,312.374Zm9.318-16.752A170.69,170.69,0,0,1,469.2,275.4q1.19-9.32,3-9.4c.375-.016.716.407,1.026,1.27a12.978,12.978,0,0,1,.568,3.67Q474.206,280.32,467.927,295.622Zm-130.883,3.74a.532.532,0,0,1-.137-.377V284.06a.566.566,0,0,1,.137-.4.473.473,0,0,1,.366-.148h6.24a5.141,5.141,0,0,1,3.657,1.166,3.991,3.991,0,0,1,1.234,3.04,3.634,3.634,0,0,1-1.988,3.383,4.2,4.2,0,0,1,2.308,3.794,4.73,4.73,0,0,1-.583,2.331,4.2,4.2,0,0,1-1.726,1.668,5.644,5.644,0,0,1-2.72.618h-6.423A.474.474,0,0,1,337.044,299.362Zm6.262-9.062a3.359,3.359,0,0,0,2.263-.674,2.364,2.364,0,0,0,.777-1.885,2.183,2.183,0,0,0-.766-1.806,3.566,3.566,0,0,0-2.274-.617h-4.251V290.3Zm.229,7.405a3.207,3.207,0,0,0,2.3-.789,2.882,2.882,0,0,0,0-4.057,3.239,3.239,0,0,0-2.3-.777h-4.48V297.7Zm7.309,1.657a.532.532,0,0,1-.137-.377V284.06a.566.566,0,0,1,.137-.4.474.474,0,0,1,.366-.148H360.6a.511.511,0,0,1,.548.549v.823a.474.474,0,0,1-.148.366.566.566,0,0,1-.4.137H352.81v5.1H360.1a.512.512,0,0,1,.549.549v.777a.51.51,0,0,1-.148.377.54.54,0,0,1-.4.148H352.81v5.28h7.977a.511.511,0,0,1,.549.549v.823a.493.493,0,0,1-.16.377.552.552,0,0,1-.389.149H351.21A.474.474,0,0,1,350.845,299.362Z" transform="translate(-307.299 -192.723)"/></svg>